<svg width="422" height="507" viewBox="0 0 422 507" fill="none" xmlns="http://www.w3.org/2000/svg">
<g opacity="0.2">
<path d="M90.8235 414.204C48.0787 381.502 6.7532 372.456 -8.56643 372.021C32.6561 305.389 85.7424 359.468 107.133 394.836C113.82 405.763 137.576 432.698 148.618 444.8C131.793 442.512 103.078 423.449 90.8235 414.204Z" fill="url(#paint0_linear)"/>
<path d="M192.505 412.869C168.371 389.683 85.6228 348.631 47.2656 331.004C5.6849 310.806 35.2738 310.021 55.2658 312.154C135.527 336.511 180.201 389.446 192.505 412.869Z" fill="url(#paint1_linear)"/>
<path d="M326.935 200.958C342.142 187.998 373.853 150.765 387.808 133.768C354.158 129.193 300.765 173.673 278.276 196.485C243.206 233.371 187.733 260.519 164.38 269.483C195.791 248.84 220.268 198.155 228.581 175.393C233.984 155.037 247.769 117.475 253.986 101.239C239.736 108.134 191.326 193.287 168.903 235.001C146.793 287.095 132.923 291.185 128.752 286.719C158.96 257.475 165.967 187.916 165.695 156.792C126.584 268.002 102.473 297.811 95.3068 298.814C127.387 246.098 135.381 178.98 135.368 152.01C119.204 171.035 86.9346 258.185 72.8205 299.381C34.6653 286.36 -8.79282 328.082 -25.7525 350.571L-6.90265 358.571C9.34884 308.844 54.3659 311.098 74.843 318.44C94.2427 329.91 165.758 429.829 199.091 478.355C183.565 400.581 134.856 331.103 112.443 306.086C155.108 316.105 203.016 389.692 221.637 425.233C227.71 372.804 170.102 321.121 140.538 301.832C202.436 331.338 235.425 360.979 244.183 372.111C262.626 389.646 267.781 456.277 268.054 487.401C289.621 448.02 288.232 409.681 284.841 395.434C276.082 351.27 193.126 311.344 152.743 296.901C251.535 308.091 316.776 301.132 337.047 296.253C392.72 279.436 323.547 280.412 282.002 283.003C253.519 284.778 204.006 284.84 179.64 284.63C225.884 284.557 257.996 263.675 268.452 252.984C275.849 243.181 310.522 214.215 326.935 200.958Z" fill="url(#paint2_linear)"/>
</g>
<path d="M75.3745 396.075C32.6297 363.373 -8.69577 354.327 -24.0154 353.892C17.2071 287.26 70.2935 341.339 91.6838 376.707C98.3709 387.635 122.127 414.57 133.169 426.671C116.344 424.384 87.6289 405.321 75.3745 396.075Z" fill="url(#paint3_linear)"/>
<path d="M177.056 394.74C152.922 371.555 70.1738 330.503 31.8166 312.875C-9.76407 292.677 19.8248 291.893 39.8168 294.025C120.078 318.383 164.752 371.317 177.056 394.74Z" fill="url(#paint4_linear)"/>
<path d="M311.485 182.829C326.693 169.87 358.404 132.636 372.359 115.64C338.708 111.065 285.316 155.544 262.826 178.356C227.757 215.243 172.283 242.391 148.93 251.354C180.341 230.711 204.819 180.026 213.131 157.264C218.535 136.908 232.32 99.3468 238.537 83.1107C224.286 90.0051 175.877 175.158 153.454 216.872C131.344 268.967 117.474 273.057 113.303 268.59C143.511 239.347 150.518 169.788 150.245 138.664C111.135 249.874 87.0242 279.682 79.8575 280.685C111.938 227.969 119.932 160.851 119.918 133.881C103.755 152.907 71.4854 240.056 57.3713 281.253C19.2161 268.232 -24.242 309.954 -41.2017 332.442L-22.3519 340.442C-6.10038 290.716 38.9167 292.969 59.3937 300.312C78.7935 311.781 150.309 411.7 183.641 460.227C168.115 382.452 119.407 312.975 96.9937 287.958C139.659 297.976 187.567 371.563 206.188 407.104C212.261 354.676 154.653 302.992 125.089 283.704C186.987 313.21 219.976 342.85 228.734 353.982C247.177 371.517 252.332 438.149 252.604 469.273C274.172 429.891 272.783 391.552 269.392 377.305C260.632 333.142 177.677 293.215 137.294 278.772C236.086 289.962 301.327 283.003 321.598 278.125C377.271 261.307 308.098 262.284 266.553 264.874C238.07 266.65 188.557 266.712 164.191 266.502C210.435 266.428 242.546 245.546 253.003 234.856C260.4 225.052 295.073 196.087 311.485 182.829Z" fill="url(#paint5_linear)"/>
<defs>
<linearGradient id="paint0_linear" x1="131.111" y1="389.618" x2="-18.1868" y2="472.153" gradientUnits="userSpaceOnUse">
<stop stop-color="#6350D9"/>
<stop offset="1" stop-color="#2A157D"/>
</linearGradient>
<linearGradient id="paint1_linear" x1="166.811" y1="366.924" x2="62.1413" y2="455.709" gradientUnits="userSpaceOnUse">
<stop stop-color="#6350D9"/>
<stop offset="1" stop-color="#2A157D"/>
</linearGradient>
<linearGradient id="paint2_linear" x1="332.473" y1="185.499" x2="-1.17945" y2="406.621" gradientUnits="userSpaceOnUse">
<stop stop-color="#5744C6"/>
<stop offset="1" stop-color="#1E095A"/>
</linearGradient>
<linearGradient id="paint3_linear" x1="115.662" y1="371.489" x2="-33.6358" y2="454.024" gradientUnits="userSpaceOnUse">
<stop stop-color="#6350D9"/>
<stop offset="1" stop-color="#2A157D"/>
</linearGradient>
<linearGradient id="paint4_linear" x1="151.362" y1="348.796" x2="46.6923" y2="437.581" gradientUnits="userSpaceOnUse">
<stop stop-color="#6350D9"/>
<stop offset="1" stop-color="#2A157D"/>
</linearGradient>
<linearGradient id="paint5_linear" x1="285.387" y1="26.0535" x2="155.556" y2="181.599" gradientUnits="userSpaceOnUse">
<stop stop-color="#6666DA"/>
<stop offset="1" stop-color="#5C3D8D"/>
</linearGradient>
</defs>
</svg>
