<svg width="24" height="50" viewBox="0 0 24 50" fill="none" xmlns="http://www.w3.org/2000/svg">
<path d="M0 2.88462C0 1.29149 1.29149 0 2.88461 0H20.1923C21.7854 0 23.0769 1.29149 23.0769 2.88462C23.0769 4.47774 21.7854 5.76923 20.1923 5.76923H18.2692V43.2692C18.2692 46.9865 15.2558 50 11.5385 50C7.82116 50 4.80769 46.9865 4.80769 43.2692V5.76923H2.88461C1.29149 5.76923 0 4.47774 0 2.88462Z" fill="#E8EDF9"/>
<path d="M4.80774 25H18.2693V43.2692C18.2693 46.9865 15.2558 50 11.5385 50C7.82121 50 4.80774 46.9865 4.80774 43.2692V25Z" fill="#5AD3C0"/>
<path fill-rule="evenodd" clip-rule="evenodd" d="M4.80762 9.61523H12.0192C12.8157 9.61523 13.4615 10.261 13.4615 11.0575C13.4615 11.8541 12.8157 12.4998 12.0192 12.4998H4.80762V9.61523ZM4.80676 16.3462H12.0183C12.8149 16.3462 13.4606 16.9919 13.4606 17.7885C13.4606 18.5851 12.8149 19.2308 12.0183 19.2308H4.80676V16.3462ZM12.0183 23.077H4.80676V25.9616H12.0183C12.8149 25.9616 13.4606 25.3159 13.4606 24.5193C13.4606 23.7228 12.8149 23.077 12.0183 23.077Z" fill="#4A4A4A"/>
<g style="mix-blend-mode:multiply" opacity="0.5">
<path fill-rule="evenodd" clip-rule="evenodd" d="M11.5379 50C15.2552 50 18.2686 46.9865 18.2686 43.2692V5.76923H20.1917C21.7848 5.76923 23.0763 4.47775 23.0763 2.88461C23.0763 1.29149 21.7848 0 20.1917 0H11.5378L11.5379 50Z" fill="#DEE6F8"/>
</g>
<rect width="23.0769" height="5.76923" rx="2.88462" fill="#D9E1F6"/>
</svg>
