<svg width="50" height="50" viewBox="0 0 50 50" fill="none" xmlns="http://www.w3.org/2000/svg">
<mask id="mask0" mask-type="alpha" maskUnits="userSpaceOnUse" x="0" y="0" width="50" height="50">
<rect width="50" height="50" fill="#C4C4C4"/>
</mask>
<g mask="url(#mask0)">
<path d="M39.7461 47.0703H27.9297C27.1202 47.0703 26.4648 46.4149 26.4648 45.6055C26.4648 44.796 27.1202 44.1406 27.9297 44.1406H39.7461C40.5544 44.1406 41.2109 43.4841 41.2109 42.6758V36.7188C41.2109 35.9093 41.8663 35.2539 42.6758 35.2539C43.4853 35.2539 44.1406 35.9093 44.1406 36.7188V42.6758C44.1406 45.0989 42.1692 47.0703 39.7461 47.0703Z" fill="#567FEA"/>
<path d="M44.1406 19.1406V22.0703L41.3574 22.6562C41.2697 22.4804 41.2109 22.2755 41.2109 22.0703V19.1406C41.2109 10.2634 33.8772 2.92969 25 2.92969C16.1228 2.92969 8.78906 10.2634 8.78906 19.1406V22.0703C8.78906 22.3633 8.67195 22.6562 8.52547 22.8905L5.85938 22.0703V19.1406C5.85938 8.65211 14.5115 0 25 0C35.4885 0 44.1406 8.65211 44.1406 19.1406Z" fill="#567FEA"/>
<path d="M45.6055 38.1836H42.6758C41.8663 38.1836 41.2109 37.5282 41.2109 36.7188V22.0703C41.2109 21.2608 41.8663 20.6055 42.6758 20.6055H45.6055C48.0286 20.6055 50 22.5769 50 25V33.7891C50 36.2122 48.0286 38.1836 45.6055 38.1836Z" fill="#4CE1C6"/>
<path d="M7.32422 38.1836H4.39453C1.97144 38.1836 0 36.2122 0 33.7891V25C0 22.5769 1.97144 20.6055 4.39453 20.6055H7.32422C8.1337 20.6055 8.78906 21.2608 8.78906 22.0703V36.7188C8.78906 37.5282 8.1337 38.1836 7.32422 38.1836Z" fill="#4CE1C6"/>
<path d="M10.2539 41.1133C7.83081 41.1133 5.85938 39.1418 5.85938 36.7188V22.0703C5.85938 19.6472 7.83081 17.6758 10.2539 17.6758C12.677 17.6758 14.6484 19.6472 14.6484 22.0703V36.7188C14.6484 39.1418 12.677 41.1133 10.2539 41.1133Z" fill="#567FEA"/>
<path d="M39.7461 41.1133C37.323 41.1133 35.3516 39.1418 35.3516 36.7188V22.0703C35.3516 19.6472 37.323 17.6758 39.7461 17.6758C42.1692 17.6758 44.1406 19.6472 44.1406 22.0703V36.7188C44.1406 39.1418 42.1692 41.1133 39.7461 41.1133Z" fill="#567FEA"/>
<path d="M25 41.2109C22.5681 41.2109 20.6055 43.1736 20.6055 45.6055C20.6055 48.037 22.5681 50 25 50C27.4319 50 29.3945 48.037 29.3945 45.6055C29.3945 43.1736 27.4319 41.2109 25 41.2109Z" fill="#4CE1C6"/>
</g>
</svg>
