<svg width="50" height="50" viewBox="0 0 50 50" fill="none" xmlns="http://www.w3.org/2000/svg">
<mask id="mask0" mask-type="alpha" maskUnits="userSpaceOnUse" x="0" y="0" width="50" height="50">
<rect width="50" height="50" fill="#C4C4C4"/>
</mask>
<g mask="url(#mask0)">
<path d="M33.3403 32.2744L17.7233 16.6553C17.1517 16.0836 16.225 16.0836 15.6534 16.6553L4.65719 27.653C-0.219064 32.5299 -0.219064 40.4653 4.65719 45.3423C9.53345 50.2193 17.4678 50.2192 22.3441 45.3423L33.3404 34.3447C33.9119 33.773 33.9119 32.8461 33.3403 32.2744Z" fill="#8DADFF"/>
<path d="M47.9983 14.5023C47.9984 11.161 46.6976 8.01988 44.3356 5.65768C39.4594 0.780775 31.5251 0.780775 26.6487 5.65768L15.6526 16.6553L33.3395 34.3446L44.3357 23.3469C46.6975 20.9847 47.9984 17.8435 47.9983 14.5023Z" fill="#70E3CE"/>
<path d="M33.341 32.2743L25.5326 24.4648L4.65796 45.3422C9.53421 50.2191 17.4685 50.2191 22.3449 45.3422L33.3411 34.3445C33.9126 33.7729 33.9126 32.846 33.341 32.2743Z" fill="#567FEA"/>
<path d="M33.3411 34.3446L44.3374 23.3469C46.6993 20.9847 48.0001 17.8436 48 14.5022C48.0001 11.1609 46.6994 8.0198 44.3374 5.65759L24.4977 25.4999L33.3411 34.3446Z" fill="#5AD3C0"/>
</g>
</svg>
