<svg width="65" height="65" viewBox="0 0 65 65" fill="none" xmlns="http://www.w3.org/2000/svg">
<mask id="mask0" mask-type="alpha" maskUnits="userSpaceOnUse" x="0" y="0" width="65" height="65">
<rect width="65" height="65" fill="#C4C4C4"/>
</mask>
<g mask="url(#mask0)">
<path fill-rule="evenodd" clip-rule="evenodd" d="M18.7022 31.9633L6.45881 38.64C4.18096 39.8821 3.26783 42.6857 4.37719 45.0311C5.36568 47.121 7.68142 48.2344 9.93102 47.7015L18.5564 45.6583L17.0877 54.1603C17.0877 54.1603 22.2281 60.4444 32.5089 60.4444C42.7897 60.4444 47.9272 54.1603 47.9272 54.1603L46.4614 45.6583L55.0868 47.7015C57.3364 48.2344 59.6521 47.121 60.6406 45.0311C61.75 42.6857 60.8368 39.8821 58.559 38.64L46.3174 31.9643C42.9526 35.8268 38.0143 38.2653 32.5102 38.2653C27.0057 38.2653 22.067 35.8263 18.7022 31.9633Z" fill="#E7C2A7"/>
<ellipse cx="32.5114" cy="49.3548" rx="6.60907" ry="8.13234" fill="#E9CEBA"/>
<ellipse rx="6.61207" ry="8.86767" transform="matrix(0.965487 0.26045 -0.257197 0.966359 41.3297 56.0086)" fill="#C79978"/>
<ellipse rx="6.61207" ry="8.86767" transform="matrix(0.965487 -0.26045 0.257197 0.966359 23.692 56.0084)" fill="#C79978"/>
<path fill-rule="evenodd" clip-rule="evenodd" d="M14.1484 9.61716C14.1484 12.3501 15.4578 14.7753 17.4794 16.2914C17.2232 17.4136 17.0879 18.5822 17.0879 19.7827C17.0879 28.3571 23.9922 35.3081 32.5091 35.3081C41.0259 35.3081 47.9302 28.3571 47.9302 19.7827C47.9302 18.5814 47.7947 17.412 47.5382 16.2891C49.558 14.7728 50.866 12.3488 50.866 9.61717C50.866 5.02372 47.1673 1.3 42.6047 1.3C39.891 1.3 37.4828 2.6173 35.9768 4.65139C34.8622 4.39353 33.7014 4.25729 32.5091 4.25729C31.3156 4.25729 30.1538 4.39378 29.0382 4.65211C27.5322 2.6176 25.1238 1.29999 22.4098 1.29999C17.8472 1.29999 14.1484 5.02371 14.1484 9.61716Z" fill="#E7C2A7"/>
<ellipse cx="38.0155" cy="16.4557" rx="2.20302" ry="3.32687" fill="#4A4A4A"/>
<ellipse cx="26.9999" cy="16.4557" rx="2.20302" ry="3.32687" fill="#4A4A4A"/>
<ellipse cx="32.5153" cy="23.8489" rx="8.07775" ry="7.76269" fill="#E9CEBA"/>
<ellipse cx="32.5077" cy="20.8915" rx="2.20302" ry="2.21791" fill="#C79978"/>
</g>
</svg>
