<svg width="52" height="70" viewBox="0 0 52 70" fill="none" xmlns="http://www.w3.org/2000/svg">
<path d="M46.2391 0H7.02684C4.02914 0 0 2.65483 0 5.33243C0 5.33243 0 59.9423 0 64.1843C0 68.4264 4.02914 69.9998 7.02684 69.9998H8.33799C5.42863 69.9998 3.60732 67.8292 3.60732 65.1516L3.41487 14.5649C3.41487 14.5649 3.06186 14.5649 3.06974 14.5649V8.5649C3.06974 5.88731 5.42863 3.71673 8.33799 3.71673H46.3986C49.3081 3.71673 51.6667 5.88713 51.6667 8.5649V4.84817C51.6669 2.17057 49.2368 0 46.2391 0Z" fill="#4CE1C6"/>
<path opacity="0.2" d="M46.3958 3.71533H8.33515C5.42578 3.71533 3.06689 5.88573 3.06689 8.5635V14.5635C3.25057 14.5635 5.54512 14.5635 8.33515 14.5635H46.3958C49.3053 14.5635 51.6638 16.7341 51.6638 19.4117V8.56368C51.664 5.88591 49.3055 3.71533 46.3958 3.71533Z" fill="#00C6A7"/>
<path d="M46.3956 14.5652H8.33498C5.54496 14.5652 3.2504 14.5652 3.06673 14.5652C3.05884 14.5652 3.05347 14.5652 3.05347 14.5652L3.06673 65.1519C3.06673 67.8295 5.42561 70 8.33498 70H44.7526H46.3956C49.3051 70 51.6637 67.8295 51.6637 65.1519V51.9737V48.2568V19.4132C51.6638 16.7358 49.3053 14.5652 46.3956 14.5652ZM13.5054 34.7285C13.5054 32.8474 15.0312 31.3218 16.9115 31.3218H22.3195V25.9131C22.3195 24.031 23.8451 22.506 25.7263 22.506H26.0367H28.0042C29.8857 22.506 31.4106 24.031 31.4106 25.9131V31.3218H36.8183C38.7002 31.3218 40.2253 32.8474 40.2253 34.7285V37.0073C40.2253 38.889 38.7002 40.414 36.8183 40.414H31.4106V45.823C31.4106 47.705 29.8857 49.2307 28.0042 49.2307H26.0367H25.7263C23.8451 49.2307 22.3195 47.705 22.3195 45.823V40.414H16.9115C15.0312 40.414 13.5054 38.889 13.5054 37.0073V34.7285V34.7285ZM12.1391 52.5295H42.5783C43.5654 52.5295 44.3661 53.2251 44.3661 54.083C44.3661 54.941 43.5654 55.6365 42.5783 55.6365H12.1391C11.1517 55.6365 10.3513 54.941 10.3513 54.083C10.3513 53.2251 11.1517 52.5295 12.1391 52.5295ZM38.4568 61.3136H16.2605C15.2731 61.3136 14.4727 60.618 14.4727 59.7601C14.4727 58.9022 15.2731 58.2066 16.2605 58.2066H38.4568C39.444 58.2066 40.2446 58.9022 40.2446 59.7601C40.2446 60.618 39.444 61.3136 38.4568 61.3136Z" fill="#4CE1C6"/>
<path d="M16.9149 40.4154H22.3229V45.8244C22.3229 47.7064 23.8485 49.2322 25.7297 49.2322H26.0401H28.0076C29.8891 49.2322 31.4141 47.7064 31.4141 45.8244V40.4154H36.8217C38.7036 40.4154 40.2287 38.8904 40.2287 37.0088V34.7299C40.2287 32.8488 38.7036 31.3233 36.8217 31.3233H31.4141V25.9145C31.4141 24.0325 29.8891 22.5074 28.0076 22.5074H26.0401H25.7297C23.8485 22.5074 22.3229 24.0325 22.3229 25.9145V31.3233H16.9149C15.0346 31.3233 13.5088 32.8488 13.5088 34.7299V37.0088C13.509 38.8904 15.0346 40.4154 16.9149 40.4154Z" fill="white"/>
<path d="M12.1442 55.638H42.5834C43.5706 55.638 44.3712 54.9425 44.3712 54.0845C44.3712 53.2266 43.5706 52.531 42.5834 52.531H12.1442C11.1569 52.531 10.3564 53.2266 10.3564 54.0845C10.3564 54.9425 11.1569 55.638 12.1442 55.638Z" fill="white"/>
<path d="M38.4615 58.207H16.2651C15.2777 58.207 14.4773 58.9026 14.4773 59.7605C14.4773 60.6185 15.2777 61.314 16.2651 61.314H38.4615C39.4486 61.314 40.2493 60.6185 40.2493 59.7605C40.2493 58.9026 39.4486 58.207 38.4615 58.207Z" fill="white"/>
</svg>
