<svg width="65" height="43" viewBox="0 0 65 43" fill="none" xmlns="http://www.w3.org/2000/svg">
<path opacity="0.2" d="M14.2689 15.6364C22.1141 15.6364 28.4738 21.762 28.4738 29.3182C28.4738 36.8743 22.1141 43 14.2689 43C6.42375 43 0.064025 36.8743 0.064025 29.3182L0.000610352 27.3636C0.000610352 12.2511 12.7201 0 28.4104 0V7.81818C22.9901 7.81818 17.8941 9.85128 14.0613 13.5429C13.3235 14.2536 12.6502 15.0098 12.0428 15.8041C12.7681 15.6941 13.5115 15.6364 14.2689 15.6364ZM50.7957 15.6364C58.6408 15.6364 65.0006 21.762 65.0006 29.3182C65.0006 36.8743 58.6408 43 50.7957 43C42.9507 43 36.5909 36.8743 36.5909 29.3182L36.5274 27.3636C36.5274 12.2511 49.2468 0 64.9372 0V7.81818C59.517 7.81818 54.4208 9.85128 50.5881 13.5429C49.8502 14.2536 49.1769 15.0098 48.5695 15.8041C49.2948 15.6941 50.0382 15.6364 50.7957 15.6364Z" fill="#567FEA"/>
</svg>
