<svg width="50" height="50" viewBox="0 0 50 50" fill="none" xmlns="http://www.w3.org/2000/svg">
<mask id="mask0" mask-type="alpha" maskUnits="userSpaceOnUse" x="0" y="0" width="50" height="50">
<rect width="50" height="50" fill="#C4C4C4"/>
</mask>
<g mask="url(#mask0)">
<path d="M46.5631 42.1437C46.5835 42.0607 46.6195 41.9913 46.6195 41.9038V36.1247C46.6195 31.465 42.4498 27.6753 37.3209 27.6753C32.192 27.6753 28.0228 31.465 28.0228 36.1247L28.028 41.1837C28.028 44.6088 25.0319 47.3969 21.3529 47.3969C17.6743 47.3969 14.6808 44.6088 14.6808 41.1837V29.4406C21.208 29.0029 26.3816 24.3945 26.3816 18.729V8.8616C26.3816 8.2456 25.7928 7.74475 25.0688 7.74475H20.9117C20.1876 7.74475 19.5989 8.2456 19.5989 8.8616C19.5989 9.47797 20.1876 9.97844 20.9117 9.97844H23.7555V18.7287C23.7555 23.4485 19.2409 27.2914 13.6904 27.2914C8.13846 27.2914 3.62519 23.4485 3.62519 18.7287V9.97881H6.68942C7.41351 9.97881 8.00223 9.47834 8.00223 8.86197C8.00267 8.2456 7.41437 7.74475 6.68986 7.74475H2.31281C1.58829 7.74475 1 8.2456 1 8.8616V18.7287C1 24.2044 5.83388 28.6921 12.0548 29.3845V41.1837C12.0548 45.8438 16.2244 49.6309 21.3529 49.6309C26.4814 49.6309 30.6536 45.8438 30.6536 41.1837L30.6489 36.1247C30.6489 32.6974 33.6441 29.9093 37.3214 29.9093C40.9986 29.9093 43.9939 32.6974 43.9939 36.1247V41.9034C43.9939 41.9389 44.0091 41.9562 44.0143 41.9865C41.7631 42.3707 40.0602 44.0681 40.0602 46.0925C40.0602 48.4026 42.2654 50.2812 44.9839 50.2812C47.6972 50.2812 49.9076 48.4026 49.9076 46.0925C49.9067 44.2552 48.5015 42.7066 46.5631 42.1437ZM44.9856 48.0472C43.7214 48.0472 42.688 47.1658 42.688 46.0925C42.688 45.0192 43.7214 44.1375 44.9856 44.1375C46.2499 44.1375 47.2833 45.0192 47.2833 46.0925C47.2833 47.1658 46.2503 48.0472 44.9856 48.0472Z" fill="#567FEA"/>
</g>
</svg>
