<svg width="70" height="70" viewBox="0 0 70 70" fill="none" xmlns="http://www.w3.org/2000/svg">
<mask id="mask0" mask-type="alpha" maskUnits="userSpaceOnUse" x="0" y="0" width="70" height="70">
<rect width="70" height="70" fill="#C4C4C4"/>
</mask>
<g mask="url(#mask0)">
<path d="M10.771 9.16016C10.771 5.84645 13.4573 3.16016 16.771 3.16016H22.4377C24.5104 3.16016 26.1906 4.84036 26.1906 6.91299V6.91299C26.1906 7.25843 26.4706 7.53846 26.816 7.53846H43.1875C43.5329 7.53846 43.813 7.25843 43.813 6.91299V6.91299C43.813 4.84036 45.4932 3.16016 47.5658 3.16016H53.2325C56.5462 3.16016 59.2325 5.84645 59.2325 9.16016V58.4565C59.2325 61.7702 56.5462 64.4565 53.2325 64.4565H16.771C13.4573 64.4565 10.771 61.7702 10.771 58.4565V9.16016Z" fill="#567FEA"/>
<path d="M22.6169 4.68722C22.6169 2.01076 24.7866 -0.158936 27.4631 -0.158936H42.54C45.2165 -0.158936 47.3862 2.01076 47.3862 4.68722V4.68722C47.3862 7.36368 45.2165 9.53337 42.54 9.53337H27.4631C24.7866 9.53337 22.6169 7.36368 22.6169 4.68722V4.68722Z" fill="#4CE1C6"/>
<path d="M20.3706 41.4703L22.5734 43.6594L26.979 39.2811" stroke="white" stroke-width="2" stroke-linecap="round" stroke-linejoin="round"/>
<path d="M33.8997 41.4703H47.1164" stroke="white" stroke-width="2" stroke-linecap="round"/>
<path d="M20.3706 50.2269L22.5734 52.416L26.979 48.0377" stroke="white" stroke-width="2" stroke-linecap="round" stroke-linejoin="round"/>
<path d="M33.8997 50.2269H47.1164" stroke="white" stroke-width="2" stroke-linecap="round"/>
<path fill-rule="evenodd" clip-rule="evenodd" d="M34.4922 21.266C34.4726 21.2458 34.4527 21.2256 34.4326 21.2057C32.7121 19.4958 29.9227 19.4958 28.2022 21.2057C26.4824 22.9148 26.4817 25.6853 28.2001 27.3953L28.1992 27.3961L33.7203 32.8831C34.1121 33.2724 34.7472 33.2724 35.1389 32.8831L39.9115 28.1401C40.1467 27.9834 40.3701 27.8019 40.578 27.5953C42.2984 25.8855 42.2984 23.1133 40.578 21.4035C38.9049 19.7408 36.221 19.695 34.4922 21.266Z" fill="white"/>
</g>
</svg>
